<svg width="26" height="26" viewBox="0 0 26 26" fill="none" xmlns="http://www.w3.org/2000/svg">
<path d="M13 26C20.1797 26 26 20.1797 26 13C26 5.8203 20.1797 0 13 0C5.8203 0 0 5.8203 0 13C0 20.1797 5.8203 26 13 26Z" fill="white"/>
<path d="M19.828 8.07961L21.125 6.84018V6.56836H16.6326L13.4314 14.5353L9.78989 6.56836H5.08034V6.84018L6.59455 8.66313C6.66683 8.72993 6.7226 8.8126 6.75747 8.90464C6.79234 8.99667 6.80534 9.09555 6.79545 9.19347V16.3582C6.81806 16.4858 6.81003 16.6168 6.77201 16.7406C6.734 16.8644 6.66709 16.9774 6.57682 17.0703L4.875 19.137V19.4059H9.71307V19.134L8.00682 17.0659C7.91561 16.9732 7.84697 16.8607 7.80624 16.7373C7.7655 16.6138 7.75376 16.4826 7.77193 16.3538V10.1611L12.0176 19.4088H12.5125L16.1628 10.1611V17.5282C16.1628 17.7218 16.1628 17.7617 16.0358 17.8902L14.7225 19.1606V19.4324H21.0955V19.1606L19.8294 17.9212C19.7742 17.88 19.7312 17.8246 19.7052 17.7608C19.6791 17.697 19.671 17.6273 19.6817 17.5593V8.44154C19.6709 8.37347 19.6789 8.30373 19.7049 8.23991C19.731 8.1761 19.7741 8.12065 19.8294 8.07961H19.828Z" fill="black"/>
</svg>
