<svg width="26" height="26" viewBox="0 0 26 26" fill="none" xmlns="http://www.w3.org/2000/svg">
<g clip-path="url(#clip0_2107_924)">
<path d="M13 0.541016C5.8175 0.541016 0 6.26102 0 13.3157C0 18.9609 3.7245 23.7482 8.88875 25.436C9.53875 25.5563 9.77708 25.1609 9.77708 24.8218C9.77708 24.5184 9.76625 23.7146 9.76083 22.6497C6.14467 23.4199 5.382 20.9359 5.382 20.9359C4.7905 19.4614 3.93575 19.0671 3.93575 19.0671C2.75817 18.2752 4.02675 18.2914 4.02675 18.2914C5.33217 18.3803 6.01792 19.6077 6.01792 19.6077C7.17708 21.5609 9.061 20.9965 9.80417 20.6704C9.92117 19.8439 10.2559 19.2816 10.6275 18.962C7.74042 18.6424 4.706 17.5439 4.706 12.6494C4.706 11.2552 5.20975 10.1155 6.04392 9.22177C5.89767 8.89893 5.45892 7.60002 6.15767 5.84068C6.15767 5.84068 7.24642 5.49835 9.73267 7.15043C10.7727 6.8666 11.8777 6.72577 12.9827 6.71927C14.0877 6.72577 15.1927 6.8666 16.2327 7.15043C18.7027 5.49835 19.7914 5.84068 19.7914 5.84068C20.4902 7.60002 20.0514 8.89893 19.9214 9.22177C20.7502 10.1155 21.2539 11.2552 21.2539 12.6494C21.2539 17.5569 18.2152 18.637 15.3227 18.9512C15.7777 19.3347 16.2002 20.1179 16.2002 21.315C16.2002 23.0245 16.1839 24.3982 16.1839 24.8131C16.1839 25.1479 16.4114 25.5476 17.0777 25.4198C22.2788 23.7428 26 18.9523 26 13.3157C26 6.26102 20.1793 0.541016 13 0.541016V0.541016Z" fill="white"/>
</g>
<defs>
<clipPath id="clip0_2107_924">
<rect width="26" height="26" fill="white"/>
</clipPath>
</defs>
</svg>
