<svg width="23" height="23" viewBox="0 0 23 23" fill="none" xmlns="http://www.w3.org/2000/svg">
<g clip-path="url(#clip0_2107_884)">
<path d="M22.7365 10.864C22.7362 10.8638 22.736 10.8635 22.7357 10.8632L18.0412 6.19131C17.6895 5.84132 17.1206 5.84263 16.7705 6.19436C16.4205 6.54606 16.4219 7.1149 16.7736 7.46493L19.9255 10.6016H0.898438C0.40223 10.6016 0 11.0038 0 11.5C0 11.9962 0.40223 12.3984 0.898438 12.3984H19.9254L16.7736 15.5351C16.4219 15.8851 16.4206 16.4539 16.7706 16.8056C17.1207 17.1574 17.6896 17.1586 18.0412 16.8087L22.7357 12.1368C22.736 12.1365 22.7362 12.1362 22.7365 12.136C23.0884 11.7848 23.0873 11.2141 22.7365 10.864Z" fill="#0C9383"/>
</g>
<defs>
<clipPath id="clip0_2107_884">
<rect width="23" height="23" fill="white"/>
</clipPath>
</defs>
</svg>
