<svg width="237" height="66" viewBox="0 0 237 66" fill="none" xmlns="http://www.w3.org/2000/svg">
<path d="M36.4885 65.1699V21.0762L7.52429 2.87231C1.13618 -1.48645 -4.13193e-05 0.864184 0 2.87231V40.2509C0 44.5227 2.24863 47.4135 6.14878 49.7168L36.4885 65.1699Z" fill="#1BC5A2"/>
<mask id="mask0_2107_941" style="mask-type:alpha" maskUnits="userSpaceOnUse" x="0" y="0" width="37" height="66">
<path d="M36.4885 65.1699V21.0762L7.52429 2.87231C1.13618 -1.48645 -4.13193e-05 0.864184 0 2.87231V40.2509C0 44.5227 2.24863 47.4135 6.14878 49.7168L36.4885 65.1699Z" fill="white"/>
</mask>
<g mask="url(#mask0_2107_941)">
<path d="M17.7461 32.8841L36.485 21.0859V43.7845L17.7461 32.8841Z" fill="#43D9BB"/>
<path d="M16.832 55.1398L36.4825 43.7793V65.1709L16.832 55.1398Z" fill="#41B8A9"/>
<path d="M17.7422 32.8843L-0.00143433 21.2832V43.7848L17.7422 32.8843Z" fill="#0C9383"/>
</g>
<path d="M36.4881 65.1699V21.0762L65.4523 2.87231C71.8404 -1.48645 72.9766 0.864184 72.9766 2.87231V40.2509C72.9766 44.5227 70.7279 47.4135 66.8278 49.7168L36.4881 65.1699Z" fill="#7EADF3"/>
<mask id="mask1_2107_941" style="mask-type:alpha" maskUnits="userSpaceOnUse" x="36" y="0" width="37" height="66">
<path d="M36.4881 65.1699V21.0762L65.4523 2.87231C71.8404 -1.48645 72.9766 0.864184 72.9766 2.87231V40.2509C72.9766 44.5227 70.7279 47.4135 66.8278 49.7168L36.4881 65.1699Z" fill="white"/>
</mask>
<g mask="url(#mask1_2107_941)">
<path d="M55.2305 32.8841L36.4916 21.0859V43.7845L55.2305 32.8841Z" fill="#A7C9FB"/>
<path d="M56.1406 55.1398L36.4901 43.7793V65.1709L56.1406 55.1398Z" fill="#7DA1D8"/>
<path d="M55.2344 32.8843L72.978 21.2832V43.7848L55.2344 32.8843Z" fill="#4773B5"/>
</g>
<path d="M98.4805 9.72655C98.3637 8.54912 97.8626 7.63443 96.9771 6.98246C96.0916 6.3305 94.8898 6.00452 93.3718 6.00452C92.3404 6.00452 91.4695 6.15048 90.7591 6.44241C90.0488 6.7246 89.5038 7.1187 89.1243 7.6247C88.7546 8.1307 88.5697 8.70482 88.5697 9.34705C88.5502 9.88224 88.6621 10.3493 88.9054 10.7483C89.1584 11.1472 89.5038 11.4927 89.9417 11.7846C90.3796 12.0668 90.8856 12.3149 91.4597 12.529C92.0338 12.7334 92.6469 12.9085 93.2988 13.0545L95.9845 13.6967C97.2885 13.9886 98.4854 14.3779 99.5752 14.8644C100.665 15.3509 101.609 15.9494 102.407 16.6597C103.205 17.3701 103.823 18.2069 104.261 19.1703C104.708 20.1336 104.937 21.2381 104.947 22.4836C104.937 24.313 104.47 25.8991 103.545 27.242C102.631 28.5751 101.307 29.6114 99.5752 30.351C97.8529 31.0808 95.7753 31.4457 93.3426 31.4457C90.9294 31.4457 88.8275 31.0759 87.0371 30.3364C85.2563 29.5968 83.8648 28.5021 82.8626 27.0522C81.87 25.5926 81.3494 23.7875 81.3008 21.637H87.4166C87.4847 22.6393 87.7718 23.4762 88.2778 24.1476C88.7935 24.8093 89.4795 25.3104 90.3358 25.651C91.2019 25.9818 92.1798 26.1473 93.2697 26.1473C94.34 26.1473 95.2693 25.9916 96.0575 25.6802C96.8554 25.3688 97.4734 24.9358 97.9112 24.3811C98.3491 23.8265 98.5681 23.1891 98.5681 22.469C98.5681 21.7976 98.3686 21.2332 97.9696 20.7759C97.5804 20.3185 97.0063 19.9293 96.2473 19.6082C95.498 19.287 94.5784 18.9951 93.4886 18.7324L90.2336 17.915C87.7134 17.302 85.7234 16.3435 84.2638 15.0396C82.8042 13.7356 82.0792 11.9792 82.089 9.77034C82.0792 7.96041 82.5609 6.37916 83.534 5.02658C84.5168 3.674 85.8645 2.61821 87.5771 1.85921C89.2898 1.1002 91.2359 0.720703 93.4156 0.720703C95.6342 0.720703 97.5707 1.1002 99.2249 1.85921C100.889 2.61821 102.183 3.674 103.107 5.02658C104.032 6.37916 104.509 7.94581 104.538 9.72655H98.4805Z" fill="white"/>
<path d="M119.298 31.4603C116.992 31.4603 115.007 30.9932 113.343 30.059C111.689 29.1151 110.414 27.782 109.519 26.0597C108.624 24.3276 108.176 22.2793 108.176 19.9147C108.176 17.6085 108.624 15.5845 109.519 13.8427C110.414 12.1009 111.674 10.7434 113.299 9.77034C114.934 8.79726 116.851 8.31072 119.05 8.31072C120.529 8.31072 121.906 8.54912 123.181 9.02593C124.465 9.49301 125.584 10.1985 126.538 11.1424C127.501 12.0863 128.251 13.2734 128.786 14.7038C129.321 16.1245 129.589 17.7885 129.589 19.6957V21.4035H110.657V17.5501H123.736C123.736 16.6549 123.541 15.8618 123.152 15.1709C122.762 14.48 122.222 13.94 121.532 13.5507C120.85 13.1518 120.057 12.9523 119.152 12.9523C118.208 12.9523 117.372 13.1712 116.642 13.6091C115.922 14.0373 115.357 14.6163 114.949 15.3461C114.54 16.0662 114.331 16.8689 114.321 17.7544V21.4181C114.321 22.5274 114.525 23.4859 114.934 24.2935C115.352 25.1012 115.941 25.724 116.7 26.1618C117.459 26.5997 118.359 26.8187 119.4 26.8187C120.091 26.8187 120.724 26.7214 121.298 26.5268C121.872 26.3321 122.363 26.0402 122.772 25.651C123.181 25.2618 123.492 24.7849 123.706 24.2206L129.457 24.6001C129.165 25.9818 128.567 27.1884 127.662 28.2199C126.767 29.2416 125.609 30.0396 124.188 30.6137C122.777 31.1781 121.147 31.4603 119.298 31.4603Z" fill="white"/>
<path d="M143.776 31.4603C141.48 31.4603 139.504 30.9737 137.85 30.0006C136.206 29.0178 134.941 27.6555 134.055 25.9137C133.179 24.1719 132.741 22.1674 132.741 19.9001C132.741 17.6036 133.184 15.5893 134.07 13.8573C134.965 12.1155 136.235 10.758 137.879 9.78493C139.524 8.80212 141.48 8.31072 143.747 8.31072C145.703 8.31072 147.415 8.66589 148.885 9.37624C150.354 10.0866 151.517 11.084 152.373 12.3685C153.23 13.6529 153.702 15.1612 153.789 16.8933H147.921C147.756 15.7742 147.318 14.8741 146.608 14.193C145.907 13.5021 144.988 13.1567 143.849 13.1567C142.886 13.1567 142.044 13.4194 141.324 13.9448C140.614 14.4606 140.059 15.2147 139.66 16.2073C139.261 17.1998 139.062 18.4015 139.062 19.8125C139.062 21.2429 139.256 22.4593 139.645 23.4616C140.044 24.4638 140.604 25.2277 141.324 25.7532C142.044 26.2786 142.886 26.5414 143.849 26.5414C144.559 26.5414 145.197 26.3954 145.761 26.1035C146.335 25.8115 146.807 25.3883 147.177 24.8336C147.557 24.2692 147.805 23.5929 147.921 22.8047H153.789C153.692 24.5173 153.225 26.0256 152.388 27.3295C151.561 28.6237 150.417 29.6357 148.958 30.3655C147.498 31.0954 145.771 31.4603 143.776 31.4603Z" fill="white"/>
<path d="M172.147 21.4765V8.60264H178.365V31.0224H172.396V26.95H172.162C171.656 28.2637 170.814 29.3195 169.637 30.1174C168.469 30.9153 167.044 31.3143 165.36 31.3143C163.862 31.3143 162.543 30.9737 161.405 30.2926C160.266 29.6114 159.376 28.6432 158.734 27.3879C158.101 26.1327 157.78 24.6292 157.77 22.8777V8.60264H163.988V21.7684C163.998 23.0918 164.353 24.1378 165.054 24.9066C165.754 25.6753 166.693 26.0597 167.871 26.0597C168.62 26.0597 169.321 25.8894 169.973 25.5488C170.625 25.1985 171.15 24.6828 171.549 24.0016C171.958 23.3205 172.157 22.4787 172.147 21.4765Z" fill="white"/>
<path d="M183.339 31.0224V8.60264H189.367V12.5144H189.601C190.009 11.1229 190.696 10.072 191.659 9.36164C192.622 8.64157 193.732 8.28153 194.987 8.28153C195.298 8.28153 195.634 8.30099 195.994 8.33991C196.354 8.37883 196.67 8.43235 196.943 8.50047V14.0178C196.651 13.9302 196.247 13.8524 195.731 13.7843C195.215 13.7162 194.744 13.6821 194.315 13.6821C193.401 13.6821 192.583 13.8816 191.863 14.2806C191.153 14.6698 190.588 15.2147 190.17 15.9153C189.761 16.6159 189.557 17.4236 189.557 18.3383V31.0224H183.339Z" fill="white"/>
<path d="M209.244 31.4603C206.976 31.4603 205.016 30.9786 203.361 30.0152C201.717 29.0422 200.447 27.6896 199.552 25.9575C198.657 24.2157 198.209 22.1966 198.209 19.9001C198.209 17.5842 198.657 15.5602 199.552 13.8281C200.447 12.0863 201.717 10.7337 203.361 9.77034C205.016 8.79726 206.976 8.31072 209.244 8.31072C211.511 8.31072 213.467 8.79726 215.111 9.77034C216.766 10.7337 218.04 12.0863 218.935 13.8281C219.831 15.5602 220.278 17.5842 220.278 19.9001C220.278 22.1966 219.831 24.2157 218.935 25.9575C218.04 27.6896 216.766 29.0422 215.111 30.0152C213.467 30.9786 211.511 31.4603 209.244 31.4603ZM209.273 26.6435C210.304 26.6435 211.165 26.3516 211.856 25.7678C212.547 25.1742 213.068 24.3665 213.418 23.3448C213.778 22.3231 213.958 21.1602 213.958 19.8563C213.958 18.5524 213.778 17.3895 213.418 16.3678C213.068 15.3461 212.547 14.5384 211.856 13.9448C211.165 13.3513 210.304 13.0545 209.273 13.0545C208.232 13.0545 207.356 13.3513 206.646 13.9448C205.945 14.5384 205.415 15.3461 205.055 16.3678C204.704 17.3895 204.529 18.5524 204.529 19.8563C204.529 21.1602 204.704 22.3231 205.055 23.3448C205.415 24.3665 205.945 25.1742 206.646 25.7678C207.356 26.3516 208.232 26.6435 209.273 26.6435Z" fill="white"/>
<path d="M82.2641 64.4184V34.5255H102.057V39.7363H88.5843V46.8592H100.743V52.0701H88.5843V64.4184H82.2641Z" fill="white"/>
<path d="M106.191 64.4184V41.9987H112.409V64.4184H106.191ZM109.315 39.1087C108.39 39.1087 107.597 38.8021 106.935 38.1891C106.283 37.5663 105.957 36.8219 105.957 35.9559C105.957 35.0996 106.283 34.3649 106.935 33.7519C107.597 33.1291 108.39 32.8177 109.315 32.8177C110.239 32.8177 111.027 33.1291 111.679 33.7519C112.341 34.3649 112.672 35.0996 112.672 35.9559C112.672 36.8219 112.341 37.5663 111.679 38.1891C111.027 38.8021 110.239 39.1087 109.315 39.1087Z" fill="white"/>
<path d="M123.608 51.457V64.4184H117.39V41.9987H123.316V45.9543H123.579C124.075 44.6503 124.907 43.6189 126.075 42.8599C127.242 42.0911 128.658 41.7068 130.322 41.7068C131.879 41.7068 133.236 42.0474 134.394 42.7285C135.552 43.4097 136.452 44.3827 137.095 45.6478C137.737 46.903 138.058 48.4016 138.058 50.1434V64.4184H131.84V51.2527C131.85 49.8806 131.499 48.8103 130.789 48.0415C130.079 47.2631 129.101 46.8738 127.855 46.8738C127.018 46.8738 126.279 47.0538 125.637 47.4139C125.004 47.7739 124.508 48.2994 124.148 48.9903C123.798 49.6714 123.618 50.4937 123.608 51.457Z" fill="white"/>
<path d="M149.352 64.8417C147.921 64.8417 146.647 64.5936 145.528 64.0973C144.409 63.5913 143.523 62.8469 142.871 61.8641C142.229 60.8716 141.908 59.6358 141.908 58.1567C141.908 56.9111 142.136 55.8651 142.594 55.0185C143.051 54.1719 143.674 53.4908 144.462 52.975C145.25 52.4593 146.146 52.0701 147.148 51.8073C148.16 51.5446 149.22 51.3597 150.33 51.2527C151.634 51.1165 152.685 50.99 153.483 50.8732C154.28 50.7467 154.859 50.5618 155.22 50.3185C155.58 50.0753 155.76 49.7152 155.76 49.2384V49.1508C155.76 48.2264 155.468 47.5112 154.884 47.0052C154.31 46.4992 153.492 46.2462 152.432 46.2462C151.313 46.2462 150.422 46.4943 149.761 46.9906C149.099 47.4771 148.661 48.0902 148.447 48.8297L142.696 48.3626C142.988 47.0003 143.562 45.8229 144.418 44.8304C145.275 43.8281 146.379 43.0594 147.732 42.5242C149.094 41.9792 150.67 41.7068 152.461 41.7068C153.706 41.7068 154.898 41.8527 156.037 42.1447C157.185 42.4366 158.202 42.8891 159.087 43.5021C159.983 44.1151 160.688 44.9033 161.204 45.8667C161.72 46.8203 161.978 47.9637 161.978 49.2968V64.4184H156.081V61.3095H155.906C155.545 62.0101 155.064 62.628 154.46 63.1632C153.857 63.6886 153.132 64.1022 152.286 64.4038C151.439 64.6958 150.461 64.8417 149.352 64.8417ZM151.133 60.5505C152.047 60.5505 152.855 60.3704 153.556 60.0104C154.256 59.6406 154.806 59.1444 155.205 58.5216C155.604 57.8988 155.803 57.1933 155.803 56.4051V54.026C155.609 54.1525 155.341 54.2692 155.001 54.3763C154.67 54.4736 154.295 54.566 153.877 54.6536C153.458 54.7314 153.04 54.8044 152.621 54.8725C152.203 54.9309 151.823 54.9844 151.483 55.0331C150.753 55.1401 150.116 55.3104 149.571 55.544C149.026 55.7775 148.603 56.0938 148.301 56.4927C147.999 56.8819 147.848 57.3685 147.848 57.9523C147.848 58.7989 148.155 59.446 148.768 59.8936C149.391 60.3315 150.179 60.5505 151.133 60.5505Z" fill="white"/>
<path d="M173.02 51.457V64.4184H166.802V41.9987H172.728V45.9543H172.99C173.487 44.6503 174.319 43.6189 175.486 42.8599C176.654 42.0911 178.07 41.7068 179.734 41.7068C181.291 41.7068 182.648 42.0474 183.806 42.7285C184.964 43.4097 185.864 44.3827 186.506 45.6478C187.149 46.903 187.47 48.4016 187.47 50.1434V64.4184H181.252V51.2527C181.262 49.8806 180.911 48.8103 180.201 48.0415C179.491 47.2631 178.513 46.8738 177.267 46.8738C176.43 46.8738 175.691 47.0538 175.048 47.4139C174.416 47.7739 173.92 48.2994 173.56 48.9903C173.209 49.6714 173.029 50.4937 173.02 51.457Z" fill="white"/>
<path d="M202.5 64.8563C200.204 64.8563 198.228 64.3698 196.574 63.3967C194.93 62.4139 193.665 61.0516 192.779 59.3098C191.903 57.568 191.465 55.5634 191.465 53.2962C191.465 50.9997 191.908 48.9854 192.794 47.2533C193.689 45.5115 194.959 44.1541 196.603 43.181C198.248 42.1982 200.204 41.7068 202.471 41.7068C204.427 41.7068 206.14 42.062 207.609 42.7723C209.078 43.4827 210.241 44.4801 211.097 45.7645C211.954 47.049 212.426 48.5573 212.513 50.2893H206.646C206.48 49.1703 206.042 48.2702 205.332 47.589C204.631 46.8982 203.712 46.5527 202.573 46.5527C201.61 46.5527 200.768 46.8154 200.048 47.3409C199.338 47.8566 198.783 48.6108 198.384 49.6033C197.985 50.5959 197.786 51.7976 197.786 53.2086C197.786 54.639 197.98 55.8554 198.369 56.8576C198.768 57.8599 199.328 58.6238 200.048 59.1492C200.768 59.6747 201.61 59.9374 202.573 59.9374C203.284 59.9374 203.921 59.7915 204.485 59.4995C205.059 59.2076 205.531 58.7843 205.901 58.2297C206.281 57.6653 206.529 56.989 206.646 56.2008H212.513C212.416 57.9134 211.949 59.4217 211.112 60.7256C210.285 62.0198 209.141 63.0318 207.682 63.7616C206.222 64.4914 204.495 64.8563 202.5 64.8563Z" fill="white"/>
<path d="M226.712 64.8563C224.405 64.8563 222.42 64.3893 220.756 63.4551C219.102 62.5112 217.827 61.1781 216.932 59.4557C216.037 57.7237 215.589 55.6753 215.589 53.3107C215.589 51.0045 216.037 48.9805 216.932 47.2387C217.827 45.4969 219.088 44.1395 220.713 43.1664C222.347 42.1933 224.264 41.7068 226.463 41.7068C227.943 41.7068 229.319 41.9452 230.594 42.422C231.879 42.8891 232.998 43.5946 233.951 44.5384C234.915 45.4823 235.664 46.6695 236.199 48.0999C236.734 49.5206 237.002 51.1846 237.002 53.0918V54.7996H218.071V50.9462H231.149C231.149 50.0509 230.954 49.2579 230.565 48.567C230.176 47.8761 229.636 47.336 228.945 46.9468C228.264 46.5479 227.471 46.3484 226.566 46.3484C225.622 46.3484 224.785 46.5673 224.055 47.0052C223.335 47.4334 222.771 48.0123 222.362 48.7421C221.953 49.4622 221.744 50.265 221.734 51.1505V54.8141C221.734 55.9235 221.939 56.8819 222.347 57.6896C222.766 58.4973 223.354 59.12 224.113 59.5579C224.872 59.9958 225.773 60.2147 226.814 60.2147C227.505 60.2147 228.137 60.1174 228.711 59.9228C229.285 59.7282 229.777 59.4363 230.186 59.047C230.594 58.6578 230.906 58.181 231.12 57.6166L236.871 57.9961C236.579 59.3779 235.98 60.5845 235.075 61.616C234.18 62.6377 233.022 63.4356 231.601 64.0098C230.19 64.5741 228.56 64.8563 226.712 64.8563Z" fill="white"/>
</svg>
